<?xml version="1.0" encoding="UTF-8"?>
<svg version="1.1" viewBox="0 0 2048 910" width="1280" height="1280" xmlns="http://www.w3.org/2000/svg">
<path transform="translate(596,535)" d="m0 0h14l20 4 16 6 23 11 19 11 20 12 18 12 17 12 15 11 17 9 10 3h15l12-6 16-12 11-9 10-9 7-6 1 4-13 30-12 29-1 2-1 27-2 20-5 17-7 13-9 10-10 7-14 7-20 6-11 2-13 1-4 6-6 17-8 18-7 10-6 7-12 6-9 2h-26l-11-1-5 5-6 14-5 10-10 10-16 8-16 3h-18l-16-2-20-5h-6l-8 4-13 10-6 3h-33l-10-1-15-8-13-12-9-11-9-16-5-14v-14l5-12 8-8 14-8h12l5 3 4 1-3-7-9-10-7-8-12-15-13-18-4-7-3-9v-9l4-11 8-11 5-5 8-7 10-5h5l1-3-7-12-3-10v-17l5-16 8-14 7-8 13-9 7-3 6-1h12l10 3 13 8 16 13 4 2v-12l3-11 4-8 8-10 10-8 14-7z" fill="#043148"/>
<path transform="translate(458,33)" d="m0 0 4 1 28 17 17 10 22 12 33 17 20 9 15 7 31 13 34 13 36 12 34 10 18 5v201l-1 12-1 4-2 17-4 23-3 11-4 16-11 32-17 35-16 27-8 11-5-4-10-7-17-9-7-3-8-2 2-4 8-11 15-26 12-26 8-22 5-18 4-21 1-6 3-24 1-165-17-4-15-4-27-9-13-4-15-6-11-4-12-5-20-9-24-11-24-12-23-13-22-13-11-7-5 1-22 14-18 10-24 13-30 15-10 4-13 6-10 4-12 5-5 2-6 2-13 5-4 1-4 2-11 3-8 3-14 4-11 3-16 4v170l3 23 3 15 4 17 2 5 2 7 6 17 10 23 9 16 6 10 10 15 10 13 2 3-17 8-9 6-9 7-8 8-3-1-4-5-4-2-1-7-6-7 1-3-5-2-3-6 1-4-3 1-6-11-10-19-4-8-2-6-6-13-6-17-6-18-2-8-4-17-1-5-3-17-1-14-1-2-1-12v-201l22-6 34-10 17-6 13-4 34-13 20-8 33-15 30-14 17-9 23-13 18-10 24-15z" fill="#83B5F8"/>
<path transform="translate(354,538)" d="m0 0h11l10 5 13 12 11 17 4 13v10l5-2 12-11 15-10 12-3h5l-2 5-8 8-6 8-7 15-3 14v25l1 8-5 6-9 7-7 8-8 15-2 7v18l4 10v5l-11 10-8 7-11 10-8 7-11 10-5 4-1 5 7-3 16-10 19-13 17-13 2-1 4 4 12 21 4 5-1 5-11 8-6 5-7 10-3 12v14l4 18 7 16 3 5v2l-12 3-26 5-8 1h-15l-6-1-14-4-12-7-10-9-5-10-5-13-4-5-43-1-13-5-10-9-8-13-9-21-5-15v-2l-17-2-21-5-16-7-12-7-8-7-7-11-11-25-15-37-11-30-7-23-2-14v-6l5 2 13 13 13 10 13 8 13 5 9 2h9l13-4 22-13 39-23 17-10 14-8 13-7 15-9 16-8 5-2 10-2 26-1z" fill="#053249"/>
<path transform="translate(444,195)" d="m0 0h34l22 4 16 5 18 8 15 9 13 10 7 7 5 4 7 8 8 10 8 13 8 16 7 19 3 13 3 26-1 20-3 18-6 21-11 23-8 12-7 9-9 10-9 9-10 8-14 9-15 8-16 6-15 4-19 3h-28l-19-3-15-4-16-6-19-10-14-10-13-12-9-9-10-13-9-15-9-19-6-21-2-9-2-29 2-22 6-23 6-15 8-16 8-12 8-10 20-20 17-12 17-9 18-7 22-5zm5 22-22 4-18 6-21 11-13 10 2 4 24 24h2l2 4 38 38h3v-6l1-2 1-10 1-1 2-10 2-9 2-3 3-9 2-4v-3h2l1 6 3 4 1 6 2 4 2 8 2 5 1 7 1 3-1 4 2 4-1 7 1 2v17l-1 4 1 4-1 4 4 4 4-1 4-5 7-9v-2l3-1 7-8 2-4 4-2 11-10 18-12-2 5-2 7-2 4-2 5-4 8-3 2-1 6-4 5-9 12-5 7-5 5-4 5 5 5 16-2 14-1h17l-5 5-14 8-11 5 2 4 42 42 6-5 12-19 8-19 5-19 2-21-1-20-3-16-7-21-9-17-8-11-9-10-6-7-14-11-13-8-17-8-17-5-19-3zm-91 48-11 15-9 17-7 21-3 15-1 10v17l3 20 6 20 8 16 10 16 14 15 11 10 15 10 19 9 16 5 9 2 10 1h27l14-2 20-6 19-9 16-11 3-4-31-31-17-3-17-6-12-7-8-6-2 3-1 8v16l3 15-2-1-3-13v-23l-5 1-19 10-14 4-19 2 5-5 13-8 12-5 4-1-1-4-4-1h-4l-16-4-15-6-15-9-5-5h22l19 3 11 3h6l-2-5-14-14-3-5-4-4-6-9-5-7-4-7-3-7-5-11-3-10 5 4 5 3 8 5h3l-1-4-43-43z" fill="#08354E"/>
<path transform="translate(773,367)" d="m0 0 17 1 21 5 12 5 9 6 9 9 12 21 13 27 9 21 11 29 2 12v18l-4 11-7 11-15 16-22 22-8 7-13 11-13 9-9 4h-13l-13-5-9-6-10-9-10-12-6-13-3-11v-21l4-12 9-17 6-18 6-25 5-26 1-11 1-48 4-10z" fill="#053249"/>
<path transform="translate(143,370)" d="m0 0 4 2 1 3 2 19 14 71 4 17 7 19 8 17 12 21 4 12v7l-3 13-6 10-6 8-8 7-10 7-12 5-5 1h-12l-9-4-14-10-11-10-11-9-21-21-7-8-9-11-5-10-2-8v-12l2-16 9-24 9-21 9-20 10-19 7-12 7-8 11-7 12-5 12-3z" fill="#05324A"/>
<path transform="translate(950,376)" d="m0 0h70l16 4 14 7 11 11 7 14 2 10v16l-3 15-5 12-7 11-8 9-10 7-12 6-13 4-13 2h-75l1-8 23-115zm31 28-2 5-13 64v2h32l9-2 11-6 7-7 6-12 2-8v-15l-3-8-5-6-10-5-12-2z" fill="#033048"/>
<path transform="translate(1330,403)" d="m0 0h20l11 4 7 5 4 6 3-13 1-1h33l-5 27-12 59-5 16-6 11-9 10-10 7-13 5-11 2h-25l-15-3-13-5-6-4 1-4 10-15 3-5 5 1 8 4 11 3 12 1 12-2 8-5 5-8 3-9-10 6-12 3h-12l-11-3-10-5-9-9-6-12-1-5v-17l3-11 5-10 11-12 10-7 10-4zm8 28-8 4-6 7-3 9v7l4 8 6 4 4 1h9l9-3 7-7 3-7v-12l-4-6-5-4-3-1z" fill="#043149"/>
<path transform="translate(1539,376)" d="m0 0h36l-2 12-7 34-1 2 49-1 6-28 4-19h37l-5 26-20 101-1 1h-36l1-9 8-40-49-1-1 10-8 39-1 1h-36l2-13 22-110z" fill="#033048"/>
<path transform="translate(1905,403)" d="m0 0h17l9 3 10 6 8 9 5 10 2 7v20l-4 14-6 11-10 11-11 7-12 4-7 1h-9l-12-3-7-4-7-6-1 10-7 34-2 3h-33l-1-3 26-130 1-3h32l1 3-2 6 11-7zm-9 28-8 4-6 7-3 7-1 5v9l3 7 5 5 4 2h14l6-3 5-5 3-4 3-11v-8l-3-8-7-6-3-1z" fill="#043149"/>
<path transform="translate(1174,404)" d="m0 0h35l-5 27-5 24v13l3 5 5 2h9l10-5 4-5 3-9 10-49 1-3h35l-2 12-17 87-1 1h-33l2-9-14 8-13 3h-9l-12-3-9-6-6-8-3-8v-19l11-56z" fill="#05324A"/>
<path transform="translate(1711,403)" d="m0 0h22l12 3 11 6 8 8 6 12 2 10v9l-2 11-1 1h-73l4 8v2l4 2 8 3h14l12-4 4-3h2l14 21-4 4-13 6-13 3-8 1h-11l-15-3-10-4-8-6-8-9-4-9-2-9v-12l4-16 6-11 9-10 8-6 10-5zm3 25-6 3-5 5-4 6 1 3h39l1-4-4-8-6-4-3-1z" fill="#043148"/>
<path transform="translate(1459,403)" d="m0 0h25l15 3 10 4-1 5-10 20-15-5-7-1h-16l-6 3-1 5 6 3 26 6 10 5 6 7 2 5v14l-4 9-7 8-9 6-13 4-15 2h-12l-19-3-14-5-3-3 12-23 6 2 11 4 12 2h13l7-3 1-1v-5l-9-3-20-4-12-5-7-8-2-5v-15l6-12 8-7 12-6z" fill="#043149"/>
<path transform="translate(1804,367)" d="m0 0h34l1 2-20 100-7 34-1 1h-34l1-10 20-100 5-26z" fill="#043149"/>
<path transform="translate(1150,403)" d="m0 0h10l-1 9-4 21-1 1-16 1-9 4-7 8-4 13-8 40-2 4h-34l1-9 18-90 1-1h32l-1 8-1 2 14-8z" fill="#04324A"/>
<path transform="translate(773,367)" d="m0 0 17 1 21 5 3 2-8-1-14-3-16-1-7 3-1 5-1 44-4 28-5 22h-1l1-9 5-26 1-11 1-48 4-10z" fill="#AFCFFA"/>
<path transform="translate(354,538)" d="m0 0h11l6 3-2 1-2-1h-14l-23 2-24 1 3-2 10-2 26-1z" fill="#8FBCF8"/>
<path transform="translate(146,372)" d="m0 0 2 3 2 19 7 35v5l-2-4-7-28-2-20z" fill="#9EC5F9"/>
<path transform="translate(773,367)" d="m0 0 17 1 21 5 3 2-8-1-14-3-16-1-7 3-2 4-1-3 3-6z" fill="#A1C7F9"/>
<path transform="translate(319,540)" d="m0 0h13l-2 1v2l-24 1 3-2z" fill="#A9CBF9"/>
<path transform="translate(464,578)" d="m0 0 2 1-14 14v-3l7-8z" fill="#7198C1"/>
<path transform="translate(105,383)" d="m0 0 2 1-13 13v-3l7-8z" fill="#7D9FC2"/>
<path transform="translate(431,376)" d="m0 0 4 2 1 4-10-2v-1h6z" fill="#C9DFFB"/>
<path transform="translate(404,310)" d="m0 0 5 4v3l-5-2-3-3h3z" fill="#E1EDFC"/>
<path transform="translate(483,551)" d="m0 0 4 3-4-1z" fill="#FEFEFE"/>
</svg>
