<?xml version="1.0" encoding="UTF-8"?>
<svg version="1.1" viewBox="0 0 1600 1600" width="1280" height="1280" xmlns="http://www.w3.org/2000/svg">
<path transform="translate(952,735)" d="m0 0h22l25 5 16 5 19 8 16 8 19 10 10 6 21 12 22 14 21 14 17 12 19 14 15 10 15 8 15 5 16 2 12-2 13-7 11-8 12-9 13-11 11-9 7-7 8-7 2-2h3l-3 10-9 21-11 26-9 22-7 16v20l-2 34-3 18-5 16-7 16-10 14-8 8-15 10-17 8-21 7-17 4-14 2-13 1-3 1-7 19-10 25-8 16-7 11-11 12-12 7-16 4-10 1h-15l-32-1-5 5-6 13-6 15-7 11-9 9-11 7-13 6-14 4-6 1h-39l-19-3-21-5-8-3-9 3-10 6-13 10-10 6-9 1h-33l-20-1-13-6-9-5-10-8-16-16-10-14-8-14-6-13-4-12v-22l5-13 9-10 9-8 15-8 4-1h12l10 5h5l-2-6-9-11-9-10-10-11-13-17-16-21-8-13-6-15-1-4v-8l4-14 6-11 9-11 2-3h2l1-3 10-8 15-8 10-2 1-3-8-14-4-9-3-11v-21l5-20 11-21 7-9 11-11 15-10 12-4 7-1h15l12 3 15 8 12 9 13 10 8 6 3 1 1-19 3-12 6-12 9-12 9-9 10-7 15-8 17-5z" fill="#043148"/>
<path transform="translate(754,8)" d="m0 0 5 1 11 7 23 14 22 13 16 9 10 6 16 8 28 15 16 8 24 11 21 10 26 11 21 9 21 8 27 11 30 10 31 10 44 13 29 8 1 1v290l-1 14-3 24-5 30-6 28-7 25-7 22-10 27-10 22-8 16-7 12-6 11-10 17-8 12-7 10-1 2-4-2-5-4-13-10-19-10-18-8-8-1-1-4 7-8 9-14 6-9 18-33 13-29 10-28 6-19 5-22 2-6 2-14 2-13 2-19 1-2 1-9 1-67v-171l-9-3-30-8-38-12-32-11-31-12-24-10-54-24-36-18-14-8-20-11-40-24-11-7-6 1-11 7-24 15-25 14-22 12-19 10-24 12-29 13-18 8-35 14-26 10-43 14-30 9-31 8v222l1 26 2 7 2 21 5 25 7 28 5 16 5 15 5 12 7 17 8 16 8 14 11 19 8 12 10 14 9 12 5 7-15 7-18 10-3 1v2l-10 7-8 7-4 2-2 5-4 2-7-9-6-3-3-12-6-6-3-7-6-4-3-10 1-2-6-2-4-10-6-10-10-19-8-18-11-26-7-18-8-25-2-6-2-9-2-6-3-14-5-26-1-9-2-10-1-14-2-13-1-32v-265l9-3 57-16 37-12 35-12 16-6 30-12 26-11 30-13 59-28 19-10 18-10 23-13 21-12 10-6 20-13z" fill="#82B5F8"/>
<path transform="translate(605,738)" d="m0 0 16 2 11 6 10 8 11 11 14 22 3 7 4 15v14l7-4 11-10 11-9 15-10 10-4 11-2 7 1-3 5-11 11-8 10-5 8-5 11-5 15-2 13v33l2 13-7 8-9 7-9 8-9 13-8 16-3 9-1 5v19l4 13 3 6v5l-7 7-8 7-4 2v2l-8 7-10 9-8 7-10 9-8 7-12 11-5 5v5l7-2 19-12 12-8 22-15 19-14 8-7 4 2 6 10 14 24 6 8 1 4-10 8-12 9-7 7-8 12-4 14v27l4 18 7 19 9 16-2 4-28 6-22 4-15 2h-20l-20-4-13-5-11-6-9-7-10-10-7-16-6-15-4-6v-2l-3-1h-60l-17-6-10-7-7-7-10-15-10-21-10-27-4-11-32-5-19-5-18-7-14-7-12-8-10-9-6-7-8-15-14-34-16-38-11-29-11-31-7-25-2-6-3-24 1-3 5 2 20 20 14 11 14 10 16 8 13 5 16 3 15-1 14-5 28-17 23-13 11-7 22-13 46-27 21-11 13-8 23-13 17-7 13-2 2-1 34-1 14-1z" fill="#053249"/>
<path transform="translate(738,242)" d="m0 0h40l27 4 26 7 20 8 20 10 14 9 12 9 14 12 17 17 7 8 9 12 13 21 11 23 9 27 5 22 2 17 1 7v23l-3 24-1 9-2 6-3 14-7 21-12 25-12 19-8 11-12 14-19 19-14 11-15 10-18 10-20 9-22 7-25 5-15 2h-41l-25-4-19-5-22-8-23-11-19-12-14-11-13-12-13-13-9-11-11-15-13-23-9-20-7-22-5-21-3-34v-10l2-18 1-15 2-6 3-14 7-21 9-21 10-18 8-12 9-12 5-6h2l2-4 19-19 17-13 15-10 12-7 25-11 23-7 20-4zm10 32-24 3-25 6-19 7-21 11-16 11-10 7 2 4 98 98h3l2-13v-10l3-8 1-9 3-8 3-10 2-7 6-12 1-6h2l3 10 3 5 3 10 2 4 2 11 3 6v7l3 7v5l-1 4 3 5-1 7-1 2 3 9-2 9 2 7-2 5 1 10-2 5 7 7 4-1 6-7 8-11 12-14 10-10v-2l4-2 10-9 10-8 12-8 7-4 1-3 4-1-5 11-2 7-3 5-3 9-3 4-2 8-4 2-2 7v2h-2v2h-2l-6 10-10 13-8 10-12 12 1 4h2l2 4 1 1h11l15-3 10-1h33l-1 3-18 12-15 8-10 4v2l8 7 56 56 4-1 10-13 12-20 8-17 7-22 5-23 1-10v-37l-2-16-7-26-6-16-8-17-12-19-11-13-9-10-11-11-20-15-17-10-17-8-21-7-23-5-19-2zm-139 70-8 10-11 17-8 16-5 11-7 22-4 18-2 24v14l2 21 5 23 7 21 10 21 14 21 9 11 9 10 9 9 14 11 10 7 13 8 22 10 18 6 26 5 17 2h22l26-4 19-5 17-6 16-8 14-8 18-13 2-3-45-45-24-4-20-7-16-8-11-7-6-5-3-1-1 1-2 18v15l3 19 2 7-4-2-3-14-1-5v-32l-6 1-14 8-12 6-19 6-16 3-16 1 5-5 12-9 15-8 18-6 1-4-3-2-11-1-17-4-18-6-16-8-12-7-10-7-1-3h32l23 3 22 6 7 1-1-6-16-16-9-11-12-15-7-11-6-10-10-19-8-21-3-7 11 7 15 10 6 1-1-5-63-63z" fill="#07344B"/>
<path transform="translate(1206,492)" d="m0 0h13l20 2 28 7 12 5 12 7 10 9 8 9 10 17 15 29 16 35 15 37 9 25 2 9 1 12v18l-6 16-8 13-11 13-11 12-32 32-8 7-15 13-11 9-16 12-11 5-3 1h-19l-9-3-12-5-13-9-14-13-9-11-7-11-5-11-4-13-1-6v-27l3-12 5-12 7-12 7-17 6-19 5-19 3-15 7-36 2-18 1-24 1-49 5-10z" fill="#043249"/>
<path transform="translate(289,497)" d="m0 0h13l3 7 2 25 2 8 1 9 3 12 12 60 6 31 5 16 7 19 15 31 13 22 5 12 2 6v17l-4 15-6 11-9 12-11 11-14 10-16 8-13 3h-14l-10-3-10-6-14-11-13-11-14-12-13-12-23-23-7-8-9-10-11-15-5-12-2-13 1-23 2-13 11-30 10-24 15-33 19-38 8-13 10-12 13-9 17-8z" fill="#053249"/>
<path transform="translate(155,1315)" d="m0 0h85l19 3 16 6 12 7 11 10 9 14 5 16 1 7v18l-3 18-6 16-7 12-7 9-12 12-13 8-15 7-21 5-7 1-20 1h-74l-8-1 1-7 32-160zm40 38-2 5-16 80-1 8h44l13-4 12-7 7-7 8-13 4-16v-19l-5-12-5-5-5-4-10-4-12-2z" fill="#033047"/>
<path transform="translate(658,1351)" d="m0 0h22l12 3 10 6 8 9 1 2h2l2-15 1-3h44l-1 9-21 104-5 17-8 16-6 8-7 8-14 9-15 6-13 3-8 1h-24l-18-3-21-7-10-6v-4l10-14 9-15 4 2 16 7 13 3h23l12-4 7-6 7-14 2-7-14 8-16 4h-13l-14-3-16-8-11-11-5-8-4-11-1-4v-23l5-16 6-11 7-9 7-7 10-7 13-6zm11 37-9 3-7 5-6 9-2 7v14l5 8 5 4 8 3h12l9-3 9-7 5-8 2-7v-13l-5-8-4-4-9-3z" fill="#023047"/>
<path transform="translate(932,1315)" d="m0 0h48l-2 12-11 52 64-1 5-22 8-39 1-2h48l-2 12-20 100-11 56-6 2h-42l-1-5 6-29 7-33-64 1-5 22-8 40-1 3-5 1h-41l-2-1 1-8 32-160z" fill="#033147"/>
<path transform="translate(1417,1351)" d="m0 0h20l15 5 10 7 3 2v2h2l8 11 5 11 3 14v16l-3 15-6 15-7 11-13 13-16 9-14 4-7 1h-13l-13-3-12-6-6-7-3-1v7l-10 50-1 4-6 1h-33l-8-1 4-19 24-121 7-35 1-3h43l-1 11 6-4 8-5zm-12 37-10 4-7 6-6 11-2 8v13l3 9 5 6 8 4 5 1h8l11-4 6-4 6-8 3-9 1-5v-14l-5-10-6-5-8-3z" fill="#023047"/>
<path transform="translate(450,1353)" d="m0 0h46l-1 9-12 59-1 12 3 10 5 2 3 1h14l12-6 5-6 5-16 13-64 1-1h45l1 2-20 100-6 29-26 1h-17l-1-5 3-8-13 8-12 5-10 2h-12l-14-3-10-5-7-6-6-10-4-11v-20l14-71z" fill="#033047"/>
<path transform="translate(1162,1351)" d="m0 0h24l14 3 12 5 13 10 6 8 5 10 3 11v21l-2 10-1 1-96 1 2 6 4 6 5 4 8 3h22l11-4 8-5 4 2 10 16 7 10-4 4-16 8-15 4-14 2h-15l-14-2-15-5-12-7-10-10-6-10-4-11-1-5v-21l4-16 8-16 9-11 11-9 10-6 14-5zm2 33-10 5-8 9-3 5v3h55l-3-11-6-7-10-4z" fill="#023047"/>
<path transform="translate(829,1351)" d="m0 0h28l21 4 14 5 1 3-15 30-5-1-14-5-13-2h-16l-11 3-2 4 1 4 8 4 18 4 19 5 11 6 7 8 4 10v12l-3 11-5 8-4 5-8 6-12 6-15 4-15 2h-18l-15-2-20-5-12-5 1-5 8-14 7-14 6 2 12 5 12 3 7 1h19l8-3 3-5-1-4-8-3-26-5-12-4-11-6-7-9-3-9v-13l3-10 6-10 9-8 16-8 16-4z" fill="#023047"/>
<path transform="translate(1282,1305)" d="m0 0h46l-5 26-30 150-1 3-2 1h-42l-2-1 1-9 18-90 15-76z" fill="#033148"/>
<path transform="translate(429,1350)" d="m0 0 3 1-1 9-6 30-3 3h-18l-11 4-9 8-5 11-4 17-10 49-3 3h-42l-3-2 5-22 21-106 1-2h43l-1 8-2 5 7-4 8-5 11-4z" fill="#043148"/>
<path transform="translate(1206,492)" d="m0 0h13l20 2 9 2 1 2-32-3v-2h-5l-1 3-6 2-2 3-1 5-1 55-3 28h-1l1-36 1-49 5-10z" fill="#F4F8FD"/>
<path transform="translate(302,498)" d="m0 0 2 2 1 4 2 25 2 8 1 9 3 12 4 20v5l-2-3-6-27-4-23-3-27z" fill="#DFECFC"/>
<path transform="translate(1206,492)" d="m0 0h13l20 2 9 2 1 2-32-3v-2h-5l-1 3-6 2-2 3-1 5-3 1 1-6z" fill="#EEF4FD"/>
<path transform="translate(1371,668)" d="m0 0 2 3 3 12 1 12v18l-3 9-1-4 1-10-1-26-2-10z" fill="#D0E3FB"/>
<path transform="translate(1206,492)" d="m0 0h13v1h-7l-1 3-6 2-2 3-1 5-3 1 1-6z" fill="#E7F0FC"/>
<path transform="translate(676,409)" d="m0 0 6 5v4l-5-1-6-5 3-1 2 1z" fill="#F1F6FD"/>
<path transform="translate(605,738)" d="m0 0 16 2 11 6-2 1-8-4-14-2h-7z" fill="#E4EEFC"/>
<path transform="translate(670,798)" d="m0 0 2 3 2 8v14l3 1h-5l-1-6v-10z" fill="#E3EEFC"/>
<path transform="translate(330,831)" d="m0 0 2 1-14 7-7 2h-6v-1l11-3 12-5z" fill="#DBE9FC"/>
<path transform="translate(1375,701)" d="m0 0h2v12l-3 9-1-4z" fill="#E8F1FC"/>
<path transform="translate(740,911)" d="m0 0 3 3v5l-6 3h-9l2-2 10-2 1-3z" fill="#EAF2FD"/>
<path transform="translate(715,505)" d="m0 0 5 2 2 6h-6l-1-3z" fill="#FAFCFD"/>
<path transform="translate(712,930)" d="m0 0 2 1-16 16v-3l4-5h2l1-3z" fill="#839FB5"/>
<path transform="translate(241,516)" d="m0 0 2 1-14 14v-3l7-8z" fill="#93ACBF"/>
<path transform="translate(1018,747)" d="m0 0 10 3 6 3-3 1-10-4z" fill="#D3E4FB"/>
<path transform="translate(789,759)" d="m0 0 5 1 2 2-6-1z" fill="#DFEBFC"/>
<path transform="translate(805,762)" d="m0 0" fill="#FEFEFE"/>
</svg>
