<?xml version="1.0" encoding="UTF-8"?>
<svg version="1.1" viewBox="0 0 1600 1600" width="1280" height="1280" xmlns="http://www.w3.org/2000/svg">
<path transform="translate(1027,851)" d="m0 0 20 2 15 3 15 4 21 8 29 14 16 9 21 12 17 10 19 12 24 16 16 11 16 12 17 12 15 9 15 7 12 4 6 1h18l11-4 11-6 20-15 11-9 10-8 10-9h2v-2l8-7 9-8 2 2-4 11-15 35-10 24-9 22-5 12v23l-2 32-3 22-6 19-7 16-8 12-9 10-8 7-17 10-18 8-26 8-22 4-16 1-6 2-5 12-8 22-9 21-8 15-8 11-7 8-11 7-9 4-18 4h-31l-16-1-9-1-5 3-7 12-8 21-7 12-12 12-13 8-11 5-13 4-11 2-25 1-19-1-22-4-24-6-7-2-14 6-15 12-14 9-5 2h-45l-22-2-4-3-10-4-11-7-11-10-8-7-9-11-8-11-9-16-6-13-4-11-1-5v-21l5-14 6-8 5-5 9-8 14-8 6-2h15l10 5 6 1-2-7-7-9-9-10-7-8-10-11-7-9-18-24-11-16-6-12-4-12v-13l6-17 7-11 11-13 11-10 10-6 10-5 10-1-1-7-8-13-4-10-3-12v-21l5-21 10-21 8-11 11-12 12-9 10-6 15-4 16-1 13 2 17 8 14 10 15 12 11 8 3 1 1-4v-12l4-18 6-12 9-13 10-10 12-9 16-8 15-5 15-3z" fill="#033046"/>
<path transform="translate(799,52)" d="m0 0 6 3 24 15 20 12 11 7 11 6 27 15 27 14 14 8 21 10 8 4 20 9 15 7 21 9 13 6 15 6 11 5 21 8 28 11 29 10 27 9 46 14 44 12 4 2v311l-1 20-2 10-1 2v13l-2 14-1 2-2 16-5 23-2 10-3 10-2 9-3 10-8 25-11 30-15 31-8 16-13 24-10 16-9 14-6 8-2 4-3-1-4-5-7-4-8-7-25-13-14-6-5-2-9-2 1-4 4-2 5-10 6-8 3-5 4-5 7-14 11-19 7-14 5-12 7-16 7-20 5-14 4-13 2-10 2-6 3-14 3-17 1-2 3-32 2-5 1-25 1-247-9-1-18-5-26-7-9-3-7-3-10-2-2-2-10-2-2-2-8-1-4-3-11-3-9-3-12-5v-2l-4 1-8-4-8-3v-2l-4 1-16-8-6-2-5-2-16-7-10-5-4-1-4-3-5-1-45-22-12-7-1-1-6-2-8-5-20-11-1-4-4 1-17-10-13-8-7-5-8-4-5-3-5 1-14 9-10 6-14 9-9 5-16 9-21 12-12 6-19 10-39 19-5 1-16 8-14 6-10 4-9 4-7 2-13 6-9 3-12 5-7 2-4 2h-5l-4 3-8 1-6 4h-6l-4 3-8 1-4 3-8 1-6 3-8 2-21 6-21 5h-2l1 262 1 14 2 11 3 23 3 18 5 18 7 28 2 4 6 18 5 13 6 13 4 9v4h2l4 10 6 10 8 13 6 12 6 8 4 7 4 5 3 6 8 9 3 6 7 8 3 3-11 4-25 13-12 10-6 3-13 13-2 3-4-2-7-8-6-3-2-9-2-5-6-6v-6h-3l-2-3-5-3-3-11v-2l-4-1-4-9v-2l-5-5-8-16-11-23-4-8-1-5-2-2-2-6-2-2-5-15-3-5-2-7-2-5-2-6-4-13-2-5-4-13-2-10-2-5-2-11-2-6-2-13-2-9-2-15-2-10-1-16-2-7-1-16-1-318 8-3 13-3 19-6 12-3 16-5 22-6 8-3 16-5 8-3 27-9 8-3 17-7 16-6 27-11 52-23 31-14 42-21 16-9 26-14 10-6 19-11 17-10 15-10 11-7z" fill="#83B4F6"/>
<path transform="translate(632,856)" d="m0 0h9l13 2 13 8 13 11 10 12 8 13 7 12 4 14 1 19 5-1 15-13 13-11 14-9 12-5 9-2h10l-1 4-8 9-5 4-7 10h-2l-10 20-6 16-2 10-1 10v32l2 12-1 7-9 8-10 8-10 10-9 14-9 20-2 9v21l3 12 5 12-2 5-10 9-8 7-15 14-11 9-17 16-8 7-15 13-2 3-1 5h6l18-11 15-10 31-21 21-16 5-4 4 1 4 5 11 20 10 16 4 5 1 6-13 9-13 11-7 7-8 13-3 10-1 7v24l4 21 8 21 7 13 3 7-1 3-48 10-20 2-3 1h-25l-4-2-3 1-16-4-17-7-11-7-13-12-4-5-8-18-7-17-5-7-3-1h-64l-10-3-10-4-9-6-9-9-10-15-8-16-10-24-8-25-8-2-30-5-15-4-18-6-17-8-16-10-12-10-8-10-8-15-10-25-15-35-14-35-13-36-8-24-7-24-3-23v-6l2-1 6 4 20 20 11 9 14 10 13 8 14 7 17 5 5 1h22l16-6 14-8 20-12 24-14 30-18 22-13 19-11 14-8 21-11 13-8 22-13 19-9 11-3 9-1 2-1 12-1 30-1 12-1z" fill="#033046"/>
<path transform="translate(781,310)" d="m0 0h42l29 4 24 6 22 8 25 12 18 11 12 9 11 9 16 15 15 16 10 13 12 19 12 23 8 20 6 19 4 17 4 28v37l-4 29-6 25-7 20-12 26-12 20-8 11-9 11-9 10-7 8-8 7-10 9-15 11-14 9-18 10-20 9-25 8-31 6-19 2h-32l-30-4-21-5-21-7-24-11-15-8-14-9-12-9-24-22-11-12-10-12-12-18-8-14-8-16-8-19-7-24-4-20-2-16-1-16v-17l3-30 7-29 7-21 11-24 9-16 7-11 10-13 7-8 9-10 15-15 11-9 15-11 13-8 18-10 19-8 18-6 25-6zm12 35-20 2-25 5-20 6-20 9-15 8-19 13-9 7 2 4 8 8h2l2 4 4 4h2l2 4 19 19 6 5 7 8 55 55 3 1 1-1v-9l2-3 1-15 2-4 2-13 6-19 2-5 3-9 4-7 1-5h2l4 10 3 5 2 8 4 9 2 10 3 6v9l3 7v11l2 3v9l-1 4 2 7-1 12 1 9-2 4v5l1 1-1 11 7 6 5-1 6-7 4-6 10-13 15-16 13-13 12-9v-2l4-2 9-6 13-8 5-4-3 7-2 2-1 10-5 5v7l-6 7-1 7-3 4-4 1v8l-7 7-4 8-5 6-6 8-5 6-4 6-5 4-6 7-3 2 2 4 5 6h14l4-2 19-2h39l-5 5-18 12-21 10-4 2 2 4 16 16h2l2 4h2l2 4 5 4 7 8 8 8h2l2 4 8 8 8 7 5 5 6-5 12-17 10-17 9-21 6-18 6-27 2-21v-20l-2-23-5-23-9-27-9-19-11-18-10-13-11-13-15-15-10-8-11-8-16-10-16-8-15-6-18-6-24-5-23-2zm-153 76-8 9-12 18-11 20-8 20-6 20-4 20-1 8v43l2 15 6 25 6 18 8 18 12 20 10 14 13 15 13 13 11 9 15 11 17 10 25 11 18 6 24 5 19 2h30l21-3 21-5 21-7 23-11 16-10 16-12 2-4-5-5h-2v-2l-8-7-14-14-7-8-12-12-2-1-16-2-16-4-16-6-16-8-12-8-8-6h-3l-1 2-2 15v23l4 22-1 3-3-5-3-15-1-15 1-22-5-1-21 12-14 6-21 6-11 2-16 1-4 1 5-6 17-12 19-9 15-5-1-4-4-2h-9l-3-2-12-2-27-9-21-11-18-12-1-3h40l21 3 11 3 15 4h5l-1-5-8-10-7-6-7-8h-2l-2-5-7-8-8-11-7-11-5-7-4-8-3-3-3-10-3-4-5-12-4-12-3-6 5 2 5 4 6 3 6 5 9 4h4l-1-4-5-6h-2v-2l-8-7-5-5-4-5-8-7-25-25-3-4h-2l-2-4z" fill="#033147"/>
<path transform="translate(1294,585)" d="m0 0h20l17 2 32 8 12 5 12 7 11 9 10 12 10 17 17 33 13 28 11 25 15 39 5 16 2 15 1 22-4 17-6 12-8 11-11 13-7 8h-2l-2 4-29 29-11 9-9 9-11 9-13 11-14 10-7 4-9 4-7 1h-9l-13-2-16-7-12-8-10-9-6-5-9-11-9-12-7-14-5-17-1-6v-28l2-10 5-14 9-16 8-18 6-18 6-23 5-24 7-37 2-22 1-62 1-14 5-10z" fill="#033046"/>
<path transform="translate(289,590)" d="m0 0h12l3 6 3 30 5 25 6 31 7 33 6 33 4 18 12 32 12 25 12 21 6 10 4 8 4 14v13l-3 16-9 17-11 14-5 5h-2l-1 3-14 11-10 6-15 6-9 2h-19l-13-5-18-13-14-12-13-11-12-11-8-7-25-25-7-8-12-13-11-15-5-10-3-10-1-7v-15l2-20 3-12 12-31 9-22 13-29 10-21 9-17 8-16 7-11 11-12 8-7 12-7 15-6z" fill="#033046"/>
<path transform="translate(1027,851)" d="m0 0 20 2 15 3 15 4 21 8 29 14 16 9 21 12 17 10 19 12 24 16 16 11 16 12 17 12 15 9 15 7 12 4 17 2-2 2-11 1-13-3-7-4-10-5-12-7-14-9-9-7-2-1v-2l-6-2v-3l-5-1-5-4-1-2-6-2-9-7-13-8-10-7-4-2-4-3-3-1v-2l-5-1-2-1v-2l-5-1-8-5v-2l-6-1-25-15-8-4-12-5-9-3v-2l-11-3-9-3-1-2h-5l-7-3-15-4-7-1-4-1-10-1-7-1-5-1-4 1-19 2-10 2-10 4h-2v2l-7 4-8 3-6 8-5 3h-2l-2 4-4 5-5 9-2 3-1 7-3 2-2 10-1 14-1 8-4 2-10-5-5-5-8-6-8-5v-2l-5-2-4-3-11-6-9-2-1-2-10-3-2-1-14 2-13 4-8 4-5 3-4 1-5 7-5 1v3h-2v3l-5 3-6 5-3 9-6 11-3 9v12l-1 1-1 8v11l1 4v14l2 5 3 1-1 9-3-3-5-12-3-12v-21l5-21 10-21 8-11 11-12 12-9 10-6 15-4 16-1 13 2 17 8 14 10 15 12 11 8 3 1 1-4v-12l4-18 6-12 9-13 10-10 12-9 16-8 15-5 15-3z" fill="#124767"/>
<path transform="translate(289,590)" d="m0 0h12l3 6 3 30 5 25 6 31 7 33 6 33 4 18 12 32 12 25 12 21 6 10 4 8 4 14v13l-3 16-9 17-11 14-5 5h-2l-1 3-14 11-10 6-15 6-9 2h-19l-13-5-18-13-14-12-13-11-5-6v-2l5 1v2l7 2 1 3 4 2v2l5 2 5 6 4 4 10 6 8 6 10 5h6l2 1h21l11-4 5-3 12-6 7-5 5-1 2-5 3-3h2l1-2 5-8 8-13 3-6 3-18-1-23-8-16-10-17-4-7-5-10-10-22-5-10-2-9-3-3-1-11-6-16-2-24-3-5-2-18-6-18-6-23-4-22-4-30-3-9-6-1-9 3h-11v-2z" fill="#134869"/>
<path transform="translate(490,900)" d="m0 0h2l-1 4-4 1-1 2-8 3-4 5-14 6-3 1-1 2h-2v2l-17 8-3 4-3 1-12 6h-2l-1 4-4 1-2-1v2l-9 3-1 2-4 1-2 4h-4v2l-9 2-1 3-6 1v3l-5 3-5 2h-3l-1 3-8 3-5 5-5 1-2 4-13 6-18 2h-20l-18-7-8-6-7-3-3-3-2-1v-2l-6-2-9-7-2-1v-2l-5-2-13-12-6-4-2 5v11 3l-1 8 4 1v8l4 5v10l3 1 2 3-1 8 2 1v2l2 3-1 4 4 2 1 5-1 3 5 6 4 10 1 4 4 4 5 16v8l1 5-3 1-16-40-13-36-8-24-7-24-3-23v-6l2-1 6 4 20 20 11 9 14 10 13 8 14 7 17 5 5 1h22l16-6 14-8 20-12 24-14 30-18 22-13 19-11 14-8z" fill="#124666"/>
<path transform="translate(1294,585)" d="m0 0h20l17 2 32 8 12 5 12 7 11 9 10 12 2 4-3-1-6-8-7-7-11-8-16-8-6-2-6 1-5-2v-2l-7 1-20-4-3-1h-16l-4 1-2 5h-3l-2 17-2 44-5 45-3 17-5 21-3 14-1 10v3l-2 6h-2l-3 13-2 1-2 12-7 14-1 4h-2l-2 6-6 10-3 12-2 4v36l3 8 2 11 3 9 1 4h-2l-6-12-5-17-1-6v-28l2-10 5-14 9-16 8-18 6-18 6-23 5-24 7-37 2-22 1-62 1-14 5-10z" fill="#184B6C"/>
<path transform="translate(778,906)" d="m0 0h10l-1 4-8 9-5 4-7 10h-2l-10 20-6 16-2 10-1 10v32l1 10-4-2 1-3h-2l-1-13v-13l3-29 2-10 4-5h2l-1-4 2-3 3-13v-3h2v-3h2v-2l2-2 1-4h-4l-6 1v-3l-5 2v2l-5 2v2l-5 1-1 3-2 1-1 3-6 5-5 1-2 4h-2l-1 4-8 1-4-2-1-2-2-21v-11l-1-3h2l5 16 1 19 5-1 15-13 13-11 14-9 12-5z" fill="#0F4363"/>
<path transform="translate(632,856)" d="m0 0h9l13 2 13 8 13 11 10 12 1 4-3-2v-2h-2l-9-11-5-4-7-4-5-3-4-2-6-2v-2l-16 3-23 3-32 2h-7l-4-1h-9l-5 3-12 4-5 3-4 1-5 5-9 1 1 4-8 2-8 4h-2v2h-3v3l-4-1 3-3 15-9 22-13 19-9 11-3 9-1 2-1 12-1 30-1 12-1z" fill="#15496A"/>
<path transform="translate(847,905)" d="m0 0 15 1 10 3 15 8 16 12 14 11 9 6 2-4 3-2v8l-4 2-10-5-5-5-8-6-8-5v-2l-5-2-4-3-11-6-9-2-1-2-10-3-2-1-14 2-13 4-8 4-5 3-4 1-5 7-5 1v3h-2v3l-5 3-6 5-3 9-6 11-3 9v12l-1 1-1 8v11l1 4v14l2 5 3 1-1 9-3-3-5-12-3-12v-21l5-21 10-21 8-11 11-12 12-9 10-6 15-4z" fill="#174B6D"/>
<path transform="translate(572,1365)" d="m0 0 3 2 9 3 5 3 8 4 9 3 16 2 8 2h8l3 1h38v-2l6-3 8-1 16-1v-4l6-1 5 2v2h2v-5l2 4-1 3-48 10-20 2-3 1h-25l-4-2-3 1-16-4-17-7-11-7-5-4z" fill="#0E4261"/>
<path transform="translate(1431,929)" d="m0 0 2 2-4 11-15 35-10 24-3 8-1-2-3-1 2-9 2-6 1-5 3-1-1-4 2-10v-5h-4l-1 2-4-4 1-3-2-1 13-11 3-3h2v-2l8-7z" fill="#114463"/>
<path transform="translate(285,1165)" d="m0 0 5 2 3 2v2l8 2v2l6 2 9 5 10 5 11 3 6 2v2h7l6 3 2-1 14 3 3 2 17 2 6 5v2l-33-5-17-4-21-7-17-8-16-10-10-8z" fill="#0E4362"/>
<path transform="translate(777,1386)" d="m0 0 7 1 3 3 9 4 2 3 10 2h12l11 1 32 2 9-3 10-3 8-3 4-1-4 4-14 9-5 2h-45l-22-2-4-3-10-4-11-7z" fill="#144868"/>
<path transform="translate(439,1292)" d="m0 0 6 1v2l5 2 4 3 16 5 15 1 47 1 4 2v2h3v2h-67l-10-3-10-4-9-6-2-6h-2z" fill="#114564"/>
<path transform="translate(1275,947)" d="m0 0 6 2v2l4 1 3 3 10 5 15 5 6 3 9 2 10-1v-3l14-4 6-6 8-4 5-4 4 2-13 10-11 8-12 5-7 1h-9l-13-2-16-7-12-8-8-7z" fill="#0E4362"/>
<path transform="translate(156,759)" d="m0 0 2 1-1 6-1 3h-2l-1 10-1 3v35l2 11 1 7 2 11 7 6 3 3-1 2 3 4v2l-6-2-9-12-5-10-3-10-1-7v-15l2-20 3-12z" fill="#124665"/>
<path transform="translate(490,900)" d="m0 0h2l-1 4-4 1-1 2-8 3-4 5-14 6-3 1-1 2h-2v2l-17 8-3 4-3 1-12 6h-2l-1 4-4 1-2-1v2l-9 3-1 2-4 1-2 4h-4v2l-9 2-1 3-6 1v3l-5 3-5 2h-3l-1 3-8 3-5 5-6 1v-2l16-9 18-11 19-11 30-18 22-13 19-11 14-8z" fill="#184B6C"/>
<path transform="translate(784,645)" d="m0 0 4 1-24 13-24 8-16 3-20 1 2-4 11-9h2l2 2h2v2l17-3 7-2h8l9-1 1-3 9-2 5-4z" fill="#083D5B"/>
<path transform="translate(762,1243)" d="m0 0 2 1-2 3 2 1-3 1h-5l-4 4-7 4-3-1 11-8zm-21 14m-1 1m-1 1m-2 1 2 1-3 2zm-2 3 1 3-3 11-2 5-2 11h-2l1 9h2l2 6v7l-1 2 2 8v7l-3-4-6-16-1-5v-21l5-14 6-8z" fill="#114565"/>
<path transform="translate(1388,1030)" d="m0 0 3 2-1 9v17l-2 32-3 22-6 19-7 16-3 3 1-7 3-8 2-5 3-9 2-12 1-1 3-17 1-9 2-25 1-1v-7l-1-4v-9z" fill="#1D5071"/>
<path transform="translate(1466,751)" d="m0 0 2 3 9 24 3 13 2 24v8l-4 17-6 12h-1v-8l3-9 1-5 2-7-1-8v-20l-1-12-5-15-3-10z" fill="#174B6C"/>
<path transform="translate(777,961)" d="m0 0 1 3-3 9v12l-1 1-1 8v11l1 4v14l2 5 3 1-1 9-3-3-5-12-3-12v-21l5-21 3-6z" fill="#124768"/>
<path transform="translate(736,795)" d="m0 0 12 2v1l18 2 1 3h9l7-2 14 1 20 1 19 1v1l-19 2h-32l-30-4-21-5v-2z" fill="#174B6E"/>
<path transform="translate(1147,1307)" d="m0 0h29l1 2-18 4h-31l-16-1-9-1-3-1 5-2h35z" fill="#1D5072"/>
<path transform="translate(754,915)" d="m0 0m-52-3h2l5 16 1 19 5-1 15-13 13-11 9-6h2l-1 4-5 2v2l-5 2v2l-5 1-1 3-2 1-1 3-6 5-5 1-2 4h-2l-1 4-8 1-4-2-1-2-2-21v-11z" fill="#15496A"/>
<path transform="translate(968,869)" d="m0 0m-2 1 2 1-5 6-3 5-6 4h-2l-2 4-4 5-5 9-2 3-1 7-3 2-2 10-1 14-3 1-1-11 4-18 6-12 9-13 10-10z" fill="#164A6A"/>
<path transform="translate(796,639)" d="m0 0h5v9l-1 5v23l4 22-1 4-4-4-3-11-2-14 1-29-1-2z" fill="#174966"/>
<path transform="translate(1235,950)" d="m0 0 5 2 16 12 17 12 15 9 15 7 12 4 17 2-2 2-11 1-13-3-7-4-10-5-12-7-14-9-9-7-2-1v-2l-6-2v-3l-5-1-5-4z" fill="#2A5B7B"/>
<path transform="translate(752,955)" d="m0 0 1 4-4 10-2 10-1 10v32l1 10-4-2 1-3h-2l-1-13v-13l3-29 2-10 4-5z" fill="#215478"/>
<path transform="translate(705,1271)" d="m0 0 1 2-3 10-1 7v24l4 21 3 9-4-1-3-13-3-3-1-11-1-5v-28l3-6h2v-2h2z" fill="#184C6E"/>
<path transform="translate(924,1376)" d="m0 0h5l2 4 2-1h12l5 1v2l9 2 2 1v2l19 1 11-1h24l1 3-25 1-19-1-22-4-24-6-5-2z" fill="#1B4E6F"/>
<path transform="translate(676,477)" d="m0 0 4 1 7 5 6 3 6 5 9 4 4 1 1-2 6 6v3l-5-1-13-2-5-4v-2l-6-2-6-5-1 3h-2l-3-7z" fill="#0A3F5D"/>
<path transform="translate(926,476)" d="m0 0h2l-1 6-3 3-1 10-5 5v7l-6 7-1 7-4 5-4-1h2l1-9 4-5 2-3v-5l4-5 2-1-1-5h-2l-1-4-4-1 13-8z" fill="#0C405F"/>
<path transform="translate(892,501)" d="m0 0 2 1-1 5h-3l-2 4-18 18-5 6-3-1-5 5-3 1 2-4 15-16 14-14z" fill="#073C5A"/>
<path transform="translate(722,1372)" d="m0 0 2 4-1 3-43 9h-5l-1-2 5-1v-2l6-3 8-1 16-1v-4l6-1 5 2v2h2z" fill="#124666"/>
<path transform="translate(697,615)" d="m0 0 10 2 11 4 10 3 6 2 10 2 6 3h5l3 3h-12l-3-2-12-2-27-9-8-4z" fill="#083D5B"/>
<path transform="translate(411,946)" d="m0 0m-2 1 2 1-1 3-9 3-1 2-4 1-2 4h-4v2l-9 2-1 3-6 1v3l-5 3-5 2h-3l-1 3-8 3-5 5-6 1v-2l16-9 18-11 19-11z" fill="#1B4F71"/>
<path transform="translate(560,500)" d="m0 0 2 1-5 30-1 57h-1l-2-23v-17l3-30z" fill="#25587C"/>
<path transform="translate(1048,525)" d="m0 0h1l2 14v37l-2 16h-1z" fill="#164A6C"/>
<path transform="translate(1308,1191)" d="m0 0h2v2l2 1-26 8-10 2 1-4 2-2 6-2h5l8-3z" fill="#114566"/>
<path transform="translate(723,1101)" d="m0 0 2 4-2 10v10l2 16-2 3-5-15v-13z" fill="#194C6D"/>
<path transform="translate(702,912)" d="m0 0h2l5 16v21h3v2l-6-2-1-2-2-21v-11z" fill="#124667"/>
<path transform="translate(1288,986)" d="m0 0 6 2 14 6 13 3 11 1-2 2-11 1-13-3-7-4-10-5z" fill="#194D6F"/>
<path transform="translate(985,1387)" d="m0 0h30l1 3-25 1-19-1-5-1v-1h13z" fill="#1C4F71"/>
<path transform="translate(748,642)" d="m0 0 5 2 3-1v2l-12 4-4 3-5 2h-7l-2-2 19-9z" fill="#083D5B"/>
<path transform="translate(742,1223)" d="m0 0 4 4 1 6-13 9-11 9-2-2 9-9 4-1v-2l4-1 3-3-2-2 2-5z" fill="#235474"/>
<path transform="translate(736,795)" d="m0 0 12 2v1l18 2 1 3 4 1-3 1-17-3-17-4v-2z" fill="#1E5173"/>
<path transform="translate(816,644)" d="m0 0 5 1 5 3 5 2 14 7 5 3 6 1-2 2-6-1-20-9-12-8z" fill="#093E5C"/>
<path transform="translate(798,673)" d="m0 0 2 3 4 22-1 4-4-4-2-6v-12z" fill="#0A3953"/>
<path transform="translate(259,1118)" d="m0 0 4 4v2l3 1 3 8-1 10-2-2-8-20z" fill="#134868"/>
<path transform="translate(797,657)" d="m0 0 2 2v14l-2 14h-1l-2-14v-7l1-1 1-7z" fill="#14486A"/>
<path transform="translate(649,362)" d="m0 0 1 4-3 3h-2v2h-2l-1 3-3-1-22 22v-3l21-21z" fill="#1C4C6A"/>
<path transform="translate(1364,985)" d="m0 0m-2 1 2 1-5 5-5 1v2l-7 4-4 1h-11l1-2 13-3 15-8z" fill="#184C6C"/>
<path transform="translate(937,349)" d="m0 0 9 6 11 8 11 10-2 1-10-8-9-7-10-6z" fill="#164A6B"/>
<path transform="translate(780,343)" d="m0 0 39 1 6 1v1h-32l-19 1 4-1v-2z" fill="#104565"/>
<path transform="translate(1395,928)" d="m0 0 3 1-5 6-11 9-5 3 2-5h2v-3h2l1-3 7-5h2v-2z" fill="#0F4363"/>
<path transform="translate(782,1044)" d="m0 0 3 3 2 6-5 5-11 1-5 1v-2l7-4 10-1z" fill="#2D5C7B"/>
<path transform="translate(264,596)" d="m0 0 2 1-3 4-7 1-1 2-9 1-1 3-6 1 3-3 16-8zm-27 13 2 1-2 3-5 2 1-3z" fill="#1B4E6D"/>
<path transform="translate(639,695)" d="m0 0 21 21 7 6h-3l-3-1-18-18v-2h-2l-2-3z" fill="#0C4160"/>
<path transform="translate(762,1243)" d="m0 0 2 1-2 3 2 1-3 1h-5l-4 4-7 4-3-1 11-8zm-21 14m-1 1m-1 1m-2 1 2 1-3 2z" fill="#1D5174"/>
<path transform="translate(696,1106)" d="m0 0h2v24l1 7h-3l-2-13v-11z" fill="#46718E"/>
<path transform="translate(709,1346)" d="m0 0 2 3 8 17 2 4-3 1-5-8-2-5-3-7z" fill="#1C4F72"/>
<path transform="translate(521,882)" d="m0 0 2 1-1 2h-3l1 4-8 2-8 4h-2v2h-3v3l-4-1 3-3 15-9z" fill="#265777"/>
<path transform="translate(784,645)" d="m0 0 4 1-24 13-3-1 4-5 9-2 5-4z" fill="#073C5A"/>
<path transform="translate(933,594)" d="m0 0h8l-2 4-5 3-5-1h-5v-4l-2-1h7l3 3z" fill="#104566"/>
<path transform="translate(179,704)" d="m0 0h2l-1 5-2 5-2 7-3 4h-2l-2 7-2 1 3-9z" fill="#194D70"/>
<path transform="translate(249,1089)" d="m0 0 1 3v2l4 2 1 2-1 7v2h-2l-6-14 1-3z" fill="#114667"/>
<path transform="translate(200,663)" d="m0 0h2l-2 6-3 5-2 1-1 6-4 2 1-5 7-14zm-11 20v3z" fill="#1E4F6E"/>
<path transform="translate(786,942)" d="m0 0 2 1-4 10-5 8-3 1 2-6z" fill="#1D5073"/>
<path transform="translate(727,936)" d="m0 0m-1 1m-2 1 2 1-5 7h-2l-1 4-9-1 1-2 5-1z" fill="#2A5C7E"/>
<path transform="translate(533,875)" d="m0 0 2 1-5 7-2 1h-6l1-3z" fill="#1C4E6B"/>
<path transform="translate(664,594)" d="m0 0h8v3h2l-2 5-8-5z" fill="#073C59"/>
<path transform="translate(712,494)" d="m0 0 7 6v3l-5-1-6-5 4-1z" fill="#EAF3FD"/>
<path transform="translate(742,1223)" d="m0 0 4 4 1 6-3 1-5-2 2-6z" fill="#154868"/>
<path transform="translate(693,472)" d="m0 0h2v2l4 1v3l5 2 2 5-2 1v-2l-4-2v-2l-4-2-3-4z" fill="#144666"/>
<path transform="translate(780,1216)" d="m0 0 4 2 6 8 1 2-2 2-10-12z" fill="#124666"/>
<path transform="translate(759,1061)" d="m0 0 2 1-1 2-5 1zm-6 4 2 1-3 3-2-1zm-5 4 2 1-5 6-5 4-2-1z" fill="#295A7B"/>
<path transform="translate(797,646)" d="m0 0 2 2v11l-2-1-1 7h-1v-13z" fill="#06344C"/>
<path transform="translate(698,1137)" d="m0 0 2 2 4 10-1 2-5-4-1-8z" fill="#104464"/>
<path transform="translate(490,900)" d="m0 0h2l-1 4-4 1-1 2-8 2 4-5z" fill="#25546F"/>
<path transform="translate(736,795)" d="m0 0 12 2-1 3-10-1-3-1v-2z" fill="#104565"/>
<path transform="translate(649,362)" d="m0 0 1 4-3 3h-2v2h-2l-1 3-2-1 2-5z" fill="#0D4161"/>
<path transform="translate(870,667)" d="m0 0h13l8 3-2 1-16-2z" fill="#083D5B"/>
<path transform="translate(1256,1203)" d="m0 0h11l4 2-7 1h-10z" fill="#15496B"/>
<path transform="translate(411,946)" d="m0 0m-2 1 2 1-1 3-9 3-1 2-5 1v-2z" fill="#25587C"/>
<path transform="translate(862,796)" d="m0 0h11l-3 2-14 3 2-4z" fill="#1B5074"/>
<path transform="translate(249,602)" d="m0 0 2 1-1 2h-4l-1 3-6 1 3-3zm-12 7 2 1-2 3-5 2 1-3z" fill="#2F5E7D"/>
<path transform="translate(968,374)" d="m0 0 5 3 10 10-3 1v-2l-4-2v-2l-4-2v-2l-4-2z" fill="#0B405F"/>
<path transform="translate(1033,1381)" d="m0 0h12l-2 2-9 3h-3v-3h2z" fill="#154A6C"/>
<path transform="translate(357,978)" d="m0 0m-2 1 2 1-5 3-5 5-6 1v-2z" fill="#2A5B7D"/>
<path transform="translate(691,893)" d="m0 0 3 3 8 12h-3l-4-5-3-4z" fill="#235679"/>
<path transform="translate(187,689)" d="m0 0h1l-1 7-3 6-3-1 2-6z" fill="#194D70"/>
<path transform="translate(858,662)" d="m0 0 11 2v2l-5 1-9-3z" fill="#083D5B"/>
<path transform="translate(1086,1332)" d="m0 0h2l-1 5-4 10-2-1v-2h2l-1-3 3-7z" fill="#275776"/>
<path transform="translate(1273,977)" d="m0 0 5 2 10 6v2l-6-2-9-6z" fill="#32607F"/>
<path transform="translate(1238,1211)" d="m0 0h2l-3 10-2 3-1-5 3-7z" fill="#174B6E"/>
<path transform="translate(930,940)" d="m0 0h1v8l-4 2-2-1v-2l2-1 2-5z" fill="#265674"/>
<path transform="translate(1043,614)" d="m0 0 1 4-3 12-2-3 2-10z" fill="#174B6E"/>
<path transform="translate(783,1242)" d="m0 0 5 1 5 3-1 3-5-1-1-4h-3z" fill="#1F516F"/>
<path transform="translate(853,799)" d="m0 0m-10 1h10v2l-12 2z" fill="#14486A"/>
<path transform="translate(880,562)" d="m0 0 2 1-5 6-4 6-2-2 7-10z" fill="#083D5B"/>
<path transform="translate(722,456)" d="m0 0 4 1 7 7-1 3-10-10z" fill="#073A56"/>
<path transform="translate(924,1376)" d="m0 0h5l3 5-6-1-5-2z" fill="#184B69"/>
<path transform="translate(765,1374)" d="m0 0 7 6-1 3-6-4-1-4z" fill="#0F4363"/>
<path transform="translate(547,1325)" d="m0 0 5 5 1 6-3-1-3-7z" fill="#1D5070"/>
<path transform="translate(1325,1185)" d="m0 0 3 1-4 3-7 2-1-4h9z" fill="#15496B"/>
<path transform="translate(756,600)" d="m0 0 7 6-1 2-5-2-2-2z" fill="#E2EEFD"/>
<path transform="translate(1277,1199)" d="m0 0m-1 1m-7 1h7v3h-9v-2z" fill="#063955"/>
<path transform="translate(1235,950)" d="m0 0 5 2 7 5-4 1-7-5z" fill="#275878"/>
<path transform="translate(156,759)" d="m0 0 2 1-1 6-1 3h-2l-1 3-1-2z" fill="#1A4E71"/>
<path transform="translate(800,682)" d="m0 0h1l2 10v5l-2-1-2-10z" fill="#154A6C"/>
<path transform="translate(193,674)" d="m0 0 2 1-1 6-4 2 1-5zm-4 9v3z" fill="#235578"/>
<path transform="translate(683,491)" d="m0 0 2 3 4 8v3h-2l-5-12z" fill="#083D5B"/>
<path transform="translate(841,347)" d="m0 0 7 1 4 1v2l-9-1-5-1z" fill="#0C4160"/>
<path transform="translate(1232,1231)" d="m0 0 1 2-4 10-2-4 2-5z" fill="#376585"/>
<path transform="translate(225,922)" d="m0 0 4 2 5 5-1 3-8-8z" fill="#17445E"/>
<path transform="translate(921,702)" d="m0 0 4 1 5 5v3l-7-6z" fill="#32658F"/>
<path transform="translate(784,645)" d="m0 0 4 1-11 6-2-1 4-4z" fill="#083D5B"/>
<path transform="translate(922,595)" d="m0 0h7l2 4-7 1v-4z" fill="#073C5A"/>
<path transform="translate(837,878)" d="m0 0 9 3-3 1-6-2z" fill="#6A9CD7"/>
<path transform="translate(853,187)" d="m0 0" fill="#83B4F6"/>
</svg>
